<svg width="25" height="25" viewBox="0 0 25 25" fill="none" xmlns="http://www.w3.org/2000/svg">
<g clip-path="url(#clip0_440_1777)">
<path d="M9.26953 11.9905H10.6518L9.96068 9.8623L9.26953 11.9905Z" fill="#484848"/>
<path d="M12.5 0.800781C5.87231 0.800781 0.5 5.39097 0.5 11.054C0.5 14.7151 2.74654 17.9311 6.125 19.7417C5.94154 20.4282 4.94346 24.1606 4.90423 24.4544C4.90423 24.4544 4.88 24.6745 5.01154 24.7583C5.05555 24.7823 5.10363 24.7964 5.15283 24.7996C5.20203 24.8028 5.25133 24.7952 5.29769 24.777C5.67615 24.7195 9.68231 21.6748 10.3746 21.1509C11.0788 21.2569 11.789 21.3091 12.5 21.3072C19.1277 21.3072 24.5 16.717 24.5 11.054C24.5 5.39097 19.1277 0.800781 12.5 0.800781ZM6.56115 9.46224C6.54615 10.9127 6.57269 12.4382 6.55077 13.8661C6.54385 14.3225 6.30154 14.4588 5.97385 14.5888C5.93682 14.603 5.89694 14.606 5.85846 14.5976C5.48346 14.5176 5.18462 14.3725 5.17538 13.8674C5.14885 12.4407 5.18346 10.9127 5.165 9.46224C4.84769 9.44848 4.39538 9.47599 4.10115 9.46224C3.69269 9.43348 3.40885 9.15214 3.42615 8.73326C3.44346 8.31438 3.65 8.01303 4.10808 8.00553C5.19038 7.98803 6.53115 7.98803 7.61346 8.00553C8.075 8.01303 8.28039 8.31563 8.29423 8.73326C8.30808 9.15089 8.02885 9.43348 7.62154 9.46224C7.33077 9.47599 6.87962 9.44848 6.56115 9.46224ZM12.3765 14.5201C12.2381 14.5883 12.0878 14.6237 11.9358 14.6239C11.6473 14.6239 11.4269 14.4988 11.3588 14.2925L11.0127 13.3197H8.90577L8.55962 14.2925C8.49269 14.4963 8.27231 14.6239 7.98269 14.6239C7.83098 14.6238 7.68104 14.5885 7.54308 14.5201C7.35154 14.425 7.16808 14.1625 7.37808 13.4547L9.03846 8.73076C9.10809 8.52267 9.23281 8.34146 9.39699 8.2098C9.56118 8.07813 9.75755 8.00186 9.96154 7.99053C10.1654 8.00308 10.3614 8.07996 10.5254 8.21171C10.6894 8.34346 10.8143 8.52432 10.8846 8.73201L12.5392 13.4535C12.7504 14.1625 12.5669 14.43 12.3765 14.5201ZM15.875 14.5201H13.6538C13.4818 14.5238 13.3155 14.4535 13.1911 14.3246C13.0668 14.1957 12.9946 14.0187 12.9904 13.8324V8.74076C12.9978 8.543 13.0754 8.35599 13.2072 8.21889C13.3389 8.08179 13.5145 8.00522 13.6971 8.00522C13.8798 8.00522 14.0553 8.08179 14.1871 8.21889C14.3188 8.35599 14.3965 8.543 14.4038 8.74076V13.1484H15.875C15.9616 13.1427 16.0483 13.1563 16.1298 13.1883C16.2113 13.2203 16.286 13.2701 16.3491 13.3345C16.4122 13.3989 16.4625 13.4766 16.4969 13.5629C16.5313 13.6492 16.5491 13.7421 16.5491 13.8361C16.5491 13.9301 16.5313 14.0231 16.4969 14.1093C16.4625 14.1956 16.4122 14.2733 16.3491 14.3377C16.286 14.4021 16.2113 14.4519 16.1298 14.4839C16.0483 14.5159 15.9616 14.5295 15.875 14.5238V14.5201ZM21.2981 13.9549C21.2801 14.1029 21.2217 14.2417 21.1305 14.3536C21.0393 14.4654 20.9194 14.5452 20.7861 14.5828C20.6528 14.6204 20.5121 14.6141 20.3822 14.5646C20.2522 14.5151 20.1388 14.4247 20.0565 14.305L18.4331 11.9755L18.1931 12.2356V13.8724C18.1931 14.0713 18.1201 14.2622 17.9903 14.4029C17.8605 14.5436 17.6844 14.6226 17.5008 14.6226C17.3172 14.6226 17.1411 14.5436 17.0112 14.4029C16.8814 14.2622 16.8085 14.0713 16.8085 13.8724V8.74576C16.8085 8.54679 16.8814 8.35596 17.0112 8.21527C17.1411 8.07457 17.3172 7.99553 17.5008 7.99553C17.6844 7.99553 17.8605 8.07457 17.9903 8.21527C18.1201 8.35596 18.1931 8.54679 18.1931 8.74576V10.3538L20.1246 8.26061C20.1752 8.20643 20.2352 8.16371 20.3012 8.13494C20.3671 8.10617 20.4377 8.09194 20.5088 8.09306C20.6817 8.09798 20.8468 8.17192 20.9725 8.3007C21.0981 8.42947 21.1755 8.604 21.1896 8.79078C21.1958 8.87413 21.1856 8.95795 21.1595 9.03666C21.1334 9.11536 21.0922 9.18713 21.0385 9.24717L19.4577 10.9565L21.1619 13.4035C21.2723 13.5622 21.32 13.7618 21.2946 13.9586L21.2981 13.9549Z" fill="#484848"/>
</g>
<defs>
<clipPath id="clip0_440_1777">
<rect width="24" height="24" fill="white" transform="translate(0.5 0.800781)"/>
</clipPath>
</defs>
</svg>
