<svg width="20" height="21" viewBox="0 0 20 21" fill="none" xmlns="http://www.w3.org/2000/svg">
<g clip-path="url(#clip0_440_1783)">
<path d="M5.15604 8.06718C5.52187 7.70134 5.92771 7.39967 6.35938 7.16134C8.76521 5.83551 11.8502 6.54051 13.3969 8.88551L11.5252 10.7563C10.9885 9.53218 9.65604 8.83551 8.33021 9.13218C7.83104 9.24384 7.35688 9.49301 6.96938 9.88051L3.38271 13.4688C2.29354 14.558 2.29354 16.3297 3.38271 17.4188C4.47187 18.508 6.24354 18.508 7.33271 17.4188L8.43854 16.313C9.44438 16.7122 10.5227 16.8713 11.5877 16.7922L9.14688 19.233C7.05438 21.3255 3.66187 21.3255 1.56937 19.233C-0.523125 17.1405 -0.523125 13.748 1.56937 11.6555L5.15604 8.06718ZM10.8527 2.37051L8.41188 4.81134C9.47604 4.73134 10.5552 4.89134 11.561 5.28967L12.666 4.18467C13.7552 3.09551 15.5269 3.09551 16.616 4.18467C17.7052 5.27384 17.7052 7.04551 16.616 8.13468L13.0285 11.7222C11.936 12.8147 10.1619 12.8055 9.07854 11.7222C8.82604 11.4697 8.60854 11.1555 8.47271 10.8463L6.60104 12.7172C6.79771 13.0155 7.00188 13.273 7.26438 13.5355C7.94104 14.2122 8.80271 14.7163 9.79437 14.9555C11.0794 15.2647 12.456 15.0938 13.6385 14.4413C14.0702 14.203 14.476 13.9013 14.8419 13.5355L18.4285 9.94801C20.5219 7.85551 20.5219 4.46301 18.4294 2.37051C16.3369 0.278841 12.9452 0.278841 10.8527 2.37051Z" fill="#484848"/>
</g>
<defs>
<clipPath id="clip0_440_1783">
<rect width="20" height="20" fill="white" transform="translate(0 0.800781)"/>
</clipPath>
</defs>
</svg>
