<svg width="17" height="16" viewBox="0 0 17 16" fill="none" xmlns="http://www.w3.org/2000/svg">
<g clip-path="url(#clip0_494_1267)">
<path d="M5.83398 6.66683C5.83398 6.31321 5.97446 5.97407 6.22451 5.72402C6.47456 5.47397 6.8137 5.3335 7.16732 5.3335H12.5007C12.8543 5.3335 13.1934 5.47397 13.4435 5.72402C13.6935 5.97407 13.834 6.31321 13.834 6.66683V12.0002C13.834 12.3538 13.6935 12.6929 13.4435 12.943C13.1934 13.193 12.8543 13.3335 12.5007 13.3335H7.16732C6.8137 13.3335 6.47456 13.193 6.22451 12.943C5.97446 12.6929 5.83398 12.3538 5.83398 12.0002V6.66683Z" stroke="#828282" stroke-linecap="round" stroke-linejoin="round"/>
<path d="M11.166 5.33317V3.99984C11.166 3.64622 11.0255 3.30708 10.7755 3.05703C10.5254 2.80698 10.1863 2.6665 9.83268 2.6665H4.49935C4.14573 2.6665 3.80659 2.80698 3.55654 3.05703C3.30649 3.30708 3.16602 3.64622 3.16602 3.99984V9.33317C3.16602 9.68679 3.30649 10.0259 3.55654 10.276C3.80659 10.526 4.14573 10.6665 4.49935 10.6665H5.83268" stroke="#828282" stroke-linecap="round" stroke-linejoin="round"/>
</g>
<defs>
<clipPath id="clip0_494_1267">
<rect width="16" height="16" fill="white" transform="translate(0.5)"/>
</clipPath>
</defs>
</svg>
