<svg width="25" height="36" viewBox="0 0 25 36" fill="none" xmlns="http://www.w3.org/2000/svg">
<g clip-path="url(#clip0_440_1526)">
<path d="M17.352 35.3224C12.9092 33.4112 9.08222 30.3076 6.29492 26.3551L6.48653 26.2197C9.24953 30.1366 13.043 33.212 17.4465 35.1052L17.352 35.3224Z" fill="url(#paint0_linear_440_1526)"/>
<path d="M6.53228 26.6922L6.30235 26.4879C3.44713 23.9263 1.45067 20.5472 0.584761 16.8104L0.490234 16.3965L0.784034 16.7005C3.50742 19.5005 6.08519 22.6148 6.49907 26.3857L6.53228 26.6922ZM0.916882 17.1782C1.79427 20.5996 3.63712 23.6965 6.22571 26.0995C5.73263 22.6736 3.42056 19.7867 0.916882 17.1782Z" fill="url(#paint1_linear_440_1526)"/>
<path d="M7.62511 27.7038L7.35431 27.6782C4.71778 27.4279 2.39038 26.4673 0.803861 24.9702L0.525391 24.707L0.903497 24.7683C3.54514 25.1924 6.16634 25.8132 7.45905 27.4892L7.62511 27.7038ZM1.26628 25.0673C2.74294 26.3217 4.7842 27.1468 7.09116 27.4125C5.85976 26.0432 3.59879 25.4607 1.26628 25.0673Z" fill="url(#paint2_linear_440_1526)"/>
<path d="M13.7108 33.3373C10.8469 28.358 8.10562 20.9083 11.2965 13.6885C12.4276 11.1064 14.1911 8.85098 16.424 7.13037L16.5568 7.32453C14.3563 9.0214 12.6199 11.2464 11.5086 13.7932C8.36365 20.9185 11.0819 28.289 13.9152 33.2172L13.7108 33.3373Z" fill="url(#paint3_linear_440_1526)"/>
<path d="M9.17903 29.5662L9.06917 29.4947C8.38705 29.0578 7.9042 28.3272 7.55164 27.1954C7.07774 25.6776 6.95457 24.072 7.19141 22.4997L7.24251 22.165L7.41112 22.4588C8.3174 24.0324 8.96275 25.7424 9.3221 27.5224C9.45494 28.1739 9.5367 28.856 9.23779 29.4487L9.17903 29.5662ZM7.37791 22.8855C7.21256 24.3114 7.34834 25.7562 7.77646 27.1264C8.09069 28.1356 8.50968 28.8075 9.08195 29.2188C9.27867 28.718 9.20458 28.133 9.08961 27.5709C8.75765 25.932 8.1806 24.3525 7.37791 22.8855Z" fill="url(#paint4_linear_440_1526)"/>
<path d="M18.4487 7.62339C17.7201 7.62274 16.9929 7.56121 16.2745 7.43945L16.0957 7.40879L16.1953 7.25806C16.949 6.11096 18.3132 5.34453 19.9381 5.15037C21.4217 5.01261 22.9164 5.24068 24.2914 5.81461L24.5111 5.89892L24.3093 6.0241C22.5439 7.09508 20.5134 7.64918 18.4487 7.62339ZM16.4994 7.23762C17.1444 7.33702 17.796 7.38741 18.4487 7.38835C20.3872 7.41018 22.2965 6.91456 23.9797 5.95257C22.7045 5.45272 21.3298 5.25933 19.9662 5.38796C18.5074 5.55913 17.2275 6.24637 16.4994 7.23762Z" fill="url(#paint5_linear_440_1526)"/>
<path d="M16.168 7.57747L16.2012 7.07673C16.2906 5.6946 16.3826 4.26392 16.9599 2.96354C17.4985 1.84929 18.2767 0.867837 19.2388 0.0894172L19.3461 0L19.4176 0.122629C19.604 0.486283 19.7082 0.886461 19.7227 1.29483C19.7373 1.7032 19.6619 2.10979 19.502 2.4858C19.19 3.21403 18.7725 3.89236 18.2629 4.49896C17.5946 5.34125 16.9794 6.22436 16.4209 7.14315L16.168 7.57747ZM19.2797 0.365333C18.393 1.10262 17.6751 2.02179 17.1746 3.06062C16.6789 4.1745 16.5512 5.4008 16.4669 6.60921C16.9702 5.80445 17.5271 5.07123 18.0713 4.361C18.5668 3.77069 18.9739 3.11148 19.2797 2.40404C19.4161 2.08152 19.4864 1.73488 19.4864 1.38469C19.4864 1.03449 19.4161 0.687861 19.2797 0.365333Z" fill="url(#paint6_linear_440_1526)"/>
<path d="M11.213 27.9187C9.55243 24.25 10.6459 20.3157 11.8568 17.6587L12.0714 17.7558C10.8809 20.3668 9.8028 24.2296 11.4276 27.819L11.213 27.9187Z" fill="url(#paint7_linear_440_1526)"/>
<path d="M11.9586 17.8377L11.9075 17.7533C11.6751 17.3701 11.7645 16.8387 12.1681 16.2205C12.3803 15.8841 12.6441 15.5832 12.9499 15.3289C13.2802 15.0727 13.6324 14.8462 14.0025 14.6518L14.0587 14.6212C14.3833 14.426 14.7286 14.2674 15.0882 14.1486L15.2083 14.1128L15.2364 14.2354C15.2877 14.5824 15.2144 14.9363 15.0295 15.2343C14.3688 16.4125 13.3155 17.3212 12.0532 17.8019L11.9586 17.8377ZM15.0218 14.4168C14.7276 14.5289 14.4438 14.6665 14.1736 14.8281L14.1302 14.8511C13.7677 15.0405 13.4224 15.261 13.0981 15.5103C12.8123 15.7505 12.5651 16.0331 12.3648 16.3482C12.1375 16.6957 11.9127 17.1734 12.0634 17.5413C13.2295 17.0746 14.2005 16.2226 14.8149 15.127C14.9438 14.9121 15.0151 14.6674 15.0218 14.4168Z" fill="url(#paint8_linear_440_1526)"/>
<path d="M10.5082 23.1131L10.5005 22.8882C10.4571 21.8025 10.9859 20.4229 11.8801 19.2911C12.3144 18.7393 13.2444 17.7991 14.4093 17.886L14.5473 17.8962L14.5141 18.0316C14.0925 19.7638 12.8765 21.3375 10.6896 22.9777L10.5082 23.1131ZM14.2458 18.1159C13.2469 18.1185 12.4498 18.9437 12.0641 19.4367C11.267 20.4459 10.7713 21.6517 10.7356 22.6455C12.7002 21.1357 13.8217 19.6897 14.2458 18.1159Z" fill="url(#paint9_linear_440_1526)"/>
<path d="M13.9841 33.5647L13.882 33.322C13.4188 32.2745 13.1746 31.1435 13.1641 29.9982C13.1717 28.7336 13.5447 27.6095 14.2192 26.8303L14.3469 26.6821L14.4185 26.8661C14.9371 28.2175 15.4608 29.9778 14.9217 31.5873C14.774 31.9896 14.5955 32.38 14.3878 32.7548C14.2882 32.9464 14.1885 33.1355 14.0966 33.3297L13.9841 33.5647ZM14.2703 27.1394C13.6786 27.9732 13.3729 28.9762 13.3991 29.9982C13.4066 31.0238 13.6104 32.0384 13.9995 32.9873C14.0582 32.8724 14.117 32.7574 14.1783 32.6424C14.3811 32.2796 14.5545 31.9011 14.6969 31.5107C15.19 30.0442 14.748 28.427 14.2703 27.1394Z" fill="url(#paint10_linear_440_1526)"/>
<path d="M10.1473 23.8874C9.33631 20.6757 9.23865 17.3254 9.86114 14.0719C10.0996 12.749 10.5039 11.4615 11.0644 10.2397L11.2739 10.347C11.2458 10.4033 8.43813 16.0186 10.3747 23.8286L10.1473 23.8874Z" fill="url(#paint11_linear_440_1526)"/>
<path d="M11.0507 10.6047L11.0022 10.4847C10.7849 9.96978 10.7094 9.40611 10.7835 8.85219C10.8576 8.29827 11.0787 7.77428 11.4237 7.33463C11.75 6.91064 12.1657 6.56376 12.6412 6.31869C13.1168 6.07362 13.6406 5.93638 14.1752 5.91673L14.3183 5.91162L14.2953 6.05213C14.1554 6.99145 13.8002 7.88568 13.2572 8.66484C12.7143 9.444 11.9984 10.087 11.1657 10.5434L11.0507 10.6047ZM14.0372 6.16199C13.563 6.1999 13.102 6.3368 12.684 6.56386C12.2659 6.79092 11.9001 7.1031 11.6102 7.48025C11.3046 7.86946 11.1038 8.33042 11.0269 8.81923C10.95 9.30803 10.9995 9.80839 11.1708 10.2726C11.9244 9.84406 12.5729 9.2526 13.0688 8.54144C13.5647 7.83027 13.8956 7.01734 14.0372 6.16199Z" fill="url(#paint12_linear_440_1526)"/>
<path d="M9.71803 21.7388C9.26464 20.0857 8.45939 18.5502 7.35742 17.2373L7.53626 17.084C8.66158 18.4275 9.48416 19.9977 9.94796 21.6877L9.71803 21.7388Z" fill="url(#paint13_linear_440_1526)"/>
<path d="M6.71329 17.518C6.49151 17.5175 6.27166 17.4768 6.06438 17.3979C5.61622 17.2087 5.22333 16.9089 4.9224 16.5267C4.50233 16.0272 4.192 15.445 4.01154 14.8178C3.83109 14.1906 3.78455 13.5325 3.87494 12.8862L3.89793 12.7227L4.04611 12.7967C4.90232 13.2432 5.65659 13.8624 6.26124 14.6152C6.86589 15.3681 7.30776 16.2382 7.55893 17.1705L7.57936 17.2548L7.50783 17.3008C7.26846 17.446 6.99322 17.5212 6.71329 17.518ZM4.08954 13.0854C4.03045 13.6738 4.08975 14.2681 4.26394 14.8333C4.43813 15.3984 4.72369 15.9229 5.10379 16.376C5.37947 16.7266 5.73875 17.0024 6.14869 17.1782C6.33367 17.2518 6.53176 17.2869 6.73078 17.2812C6.9298 17.2754 7.12555 17.2291 7.306 17.145C7.06312 16.2901 6.65401 15.4915 6.10208 14.7949C5.55016 14.0983 4.86626 13.5174 4.08954 13.0854Z" fill="url(#paint14_linear_440_1526)"/>
<path d="M9.67884 21.1562C8.55889 18.0706 7.93043 14.8283 7.81641 11.5477L8.05145 11.54C8.16306 14.7962 8.78638 18.0146 9.89855 21.077L9.67884 21.1562Z" fill="url(#paint15_linear_440_1526)"/>
<path d="M10.0163 20.7983L9.78125 20.7753C9.98395 18.8671 10.5904 17.0238 11.5604 15.368C12.5303 13.7123 13.8415 12.2819 15.4069 11.1719L15.5423 11.366C14.0054 12.4568 12.7179 13.8619 11.7652 15.488C10.8125 17.1142 10.2164 18.9243 10.0163 20.7983Z" fill="url(#paint16_linear_440_1526)"/>
<path d="M8.25324 15.6912C7.99333 15.3337 7.6999 15.0018 7.37695 14.7L7.5379 14.5288C7.87235 14.8404 8.17606 15.1835 8.44485 15.5533L8.25324 15.6912Z" fill="url(#paint17_linear_440_1526)"/>
<path d="M8.35613 14.9427L8.12109 14.9172C8.16708 14.4982 8.46599 14.1482 8.72913 13.8365C8.77512 13.7829 8.81855 13.7318 8.85942 13.6807L9.04081 13.8314C8.99738 13.885 8.9514 13.9361 8.90796 13.9898C8.6576 14.2887 8.39445 14.5953 8.35613 14.9427Z" fill="url(#paint18_linear_440_1526)"/>
<path d="M8.14219 13.2106L7.91992 13.1314C8.04301 12.7929 8.25265 12.4925 8.52796 12.2603L8.67869 12.4416C8.43526 12.6463 8.25019 12.9115 8.14219 13.2106Z" fill="url(#paint19_linear_440_1526)"/>
<path d="M7.98278 13.9261C7.70456 13.6521 7.45147 13.3537 7.22656 13.0344L7.41817 12.8965C7.63679 13.2029 7.88123 13.4901 8.14884 13.7549L7.98278 13.9261Z" fill="url(#paint20_linear_440_1526)"/>
<path d="M7.93903 12.3191C7.68687 12.2269 7.46012 12.0764 7.27734 11.8797L7.45107 11.7188C7.60832 11.8882 7.80359 12.0178 8.02078 12.0969L7.93903 12.3191Z" fill="url(#paint21_linear_440_1526)"/>
<path d="M7.59032 11.8186C7.59488 11.7267 7.56346 11.6367 7.50273 11.5676C7.44201 11.4984 7.35675 11.4557 7.26503 11.4484C7.17332 11.4411 7.08236 11.4698 7.01145 11.5284C6.94054 11.587 6.89526 11.671 6.8852 11.7624C6.88064 11.8543 6.91206 11.9444 6.97278 12.0135C7.03351 12.0826 7.11877 12.1254 7.21049 12.1327C7.3022 12.14 7.39316 12.1113 7.46407 12.0526C7.53498 11.994 7.58026 11.9101 7.59032 11.8186Z" fill="url(#paint22_linear_440_1526)"/>
<path d="M8.27001 11.305C8.27456 11.2131 8.24315 11.123 8.18242 11.0539C8.12169 10.9848 8.03643 10.942 7.94472 10.9347C7.853 10.9274 7.76205 10.9561 7.69114 11.0147C7.62023 11.0734 7.57495 11.1573 7.56489 11.2488C7.56033 11.3406 7.59175 11.4307 7.65247 11.4998C7.7132 11.5689 7.79846 11.6117 7.89017 11.619C7.98189 11.6263 8.07285 11.5976 8.14375 11.539C8.21466 11.4804 8.25995 11.3964 8.27001 11.305Z" fill="url(#paint23_linear_440_1526)"/>
<path d="M7.62743 12.991C7.63198 12.8991 7.60057 12.809 7.53984 12.7399C7.47912 12.6708 7.39386 12.6281 7.30214 12.6207C7.21043 12.6134 7.11947 12.6421 7.04856 12.7008C6.97765 12.7594 6.93237 12.8433 6.92231 12.9348C6.91775 13.0267 6.94917 13.1167 7.00989 13.1859C7.07062 13.255 7.15588 13.2977 7.2476 13.305C7.33931 13.3123 7.43027 13.2836 7.50118 13.225C7.57209 13.1664 7.61737 13.0824 7.62743 12.991Z" fill="url(#paint24_linear_440_1526)"/>
<path d="M7.7329 14.5418C7.73745 14.4499 7.70604 14.3598 7.64531 14.2907C7.58459 14.2216 7.49932 14.1788 7.40761 14.1715C7.31589 14.1642 7.22494 14.1929 7.15403 14.2515C7.08312 14.3102 7.03784 14.3941 7.02778 14.4856C7.02322 14.5775 7.05464 14.6675 7.11536 14.7366C7.17609 14.8058 7.26135 14.8485 7.35307 14.8558C7.44478 14.8631 7.53574 14.8344 7.60664 14.7758C7.67755 14.7172 7.72284 14.6332 7.7329 14.5418Z" fill="url(#paint25_linear_440_1526)"/>
<path d="M9.30369 13.816C9.31041 13.7227 9.2799 13.6306 9.21883 13.5597C9.15776 13.4889 9.07111 13.4451 8.97785 13.438C8.88459 13.4309 8.79232 13.4611 8.72123 13.5219C8.65015 13.5826 8.60604 13.6691 8.59857 13.7623C8.59185 13.8556 8.62236 13.9478 8.68343 14.0186C8.7445 14.0895 8.83115 14.1332 8.92441 14.1403C9.01767 14.1474 9.10994 14.1173 9.18103 14.0565C9.25211 13.9957 9.29622 13.9092 9.30369 13.816Z" fill="url(#paint26_linear_440_1526)"/>
<path d="M9.06931 12.2935C9.07604 12.2003 9.04552 12.1081 8.98445 12.0373C8.92338 11.9664 8.83673 11.9227 8.74347 11.9156C8.65021 11.9085 8.55794 11.9386 8.48686 11.9994C8.41577 12.0602 8.37167 12.1467 8.3642 12.2399C8.35748 12.3332 8.38799 12.4253 8.44906 12.4962C8.51013 12.567 8.59678 12.6108 8.69004 12.6179C8.7833 12.625 8.87557 12.5948 8.94665 12.534C9.01774 12.4732 9.06184 12.3868 9.06931 12.2935Z" fill="url(#paint27_linear_440_1526)"/>
<path d="M15.8208 11.4046C15.8253 11.3127 15.7939 11.2226 15.7332 11.1535C15.6725 11.0844 15.5872 11.0416 15.4955 11.0343C15.4038 11.027 15.3128 11.0557 15.2419 11.1143C15.171 11.173 15.1257 11.2569 15.1157 11.3484C15.1111 11.4403 15.1425 11.5303 15.2033 11.5994C15.264 11.6685 15.3492 11.7113 15.441 11.7186C15.5327 11.7259 15.6236 11.6972 15.6945 11.6386C15.7654 11.58 15.8107 11.496 15.8208 11.4046Z" fill="url(#paint28_linear_440_1526)"/>
<path d="M15.229 13.3001C15.2335 13.2082 15.2021 13.1181 15.1414 13.049C15.0807 12.9799 14.9954 12.9371 14.9037 12.9298C14.812 12.9225 14.721 12.9512 14.6501 13.0098C14.5792 13.0685 14.5339 13.1524 14.5239 13.2439C14.5193 13.3358 14.5507 13.4258 14.6115 13.4949C14.6722 13.5641 14.7574 13.6068 14.8492 13.6141C14.9409 13.6214 15.0318 13.5927 15.1027 13.5341C15.1736 13.4755 15.2189 13.3915 15.229 13.3001Z" fill="url(#paint29_linear_440_1526)"/>
<path d="M14.3877 11.0445C14.3944 10.9512 14.3639 10.8591 14.3028 10.7882C14.2417 10.7174 14.1551 10.6736 14.0618 10.6665C13.9686 10.6595 13.8763 10.6896 13.8052 10.7504C13.7341 10.8112 13.69 10.8976 13.6826 10.9909C13.6758 11.0842 13.7063 11.1763 13.7674 11.2471C13.8285 11.318 13.9151 11.3617 14.0084 11.3688C14.1017 11.3759 14.1939 11.3458 14.265 11.285C14.3361 11.2242 14.3802 11.1377 14.3877 11.0445Z" fill="url(#paint30_linear_440_1526)"/>
<path d="M13.9227 12.6973L13.6953 12.6309C13.8322 12.1476 13.8934 11.6461 13.8767 11.144L14.1117 11.1466C14.1312 11.6703 14.0674 12.1937 13.9227 12.6973Z" fill="url(#paint31_linear_440_1526)"/>
<path d="M12.508 14.3525L12.3828 14.1533C13.0318 13.6884 13.7719 13.3662 14.5544 13.208L14.6106 13.4379C13.8516 13.5864 13.1341 13.8985 12.508 14.3525Z" fill="url(#paint32_linear_440_1526)"/>
</g>
<defs>
<linearGradient id="paint0_linear_440_1526" x1="24.8735" y1="-1.39777" x2="14.4252" y2="37.3413" gradientUnits="userSpaceOnUse">
<stop stop-color="#E6C684"/>
<stop offset="0.228" stop-color="#C09947"/>
<stop offset="0.414" stop-color="#E9C577"/>
<stop offset="0.586" stop-color="#9E6F06"/>
<stop offset="1" stop-color="#E5C98D"/>
</linearGradient>
<linearGradient id="paint1_linear_440_1526" x1="14.4897" y1="-5.59523" x2="-12.7884" y2="17.6318" gradientUnits="userSpaceOnUse">
<stop stop-color="#E6C684"/>
<stop offset="0.228" stop-color="#C09947"/>
<stop offset="0.414" stop-color="#E9C577"/>
<stop offset="0.586" stop-color="#9E6F06"/>
<stop offset="1" stop-color="#E5C98D"/>
</linearGradient>
<linearGradient id="paint2_linear_440_1526" x1="16.5992" y1="-4.74506" x2="13.8342" y2="33.6166" gradientUnits="userSpaceOnUse">
<stop stop-color="#E6C684"/>
<stop offset="0.228" stop-color="#C09947"/>
<stop offset="0.414" stop-color="#E9C577"/>
<stop offset="0.586" stop-color="#9E6F06"/>
<stop offset="1" stop-color="#E5C98D"/>
</linearGradient>
<linearGradient id="paint3_linear_440_1526" x1="22.9674" y1="-2.17308" x2="2.30651" y2="1.15757" gradientUnits="userSpaceOnUse">
<stop stop-color="#E6C684"/>
<stop offset="0.228" stop-color="#C09947"/>
<stop offset="0.414" stop-color="#E9C577"/>
<stop offset="0.586" stop-color="#9E6F06"/>
<stop offset="1" stop-color="#E5C98D"/>
</linearGradient>
<linearGradient id="paint4_linear_440_1526" x1="20.0394" y1="-3.35425" x2="-3.11628" y2="2.50393" gradientUnits="userSpaceOnUse">
<stop stop-color="#E6C684"/>
<stop offset="0.228" stop-color="#C09947"/>
<stop offset="0.414" stop-color="#E9C577"/>
<stop offset="0.586" stop-color="#9E6F06"/>
<stop offset="1" stop-color="#E5C98D"/>
</linearGradient>
<linearGradient id="paint5_linear_440_1526" x1="23.7453" y1="-1.81931" x2="22.3758" y2="36.0093" gradientUnits="userSpaceOnUse">
<stop stop-color="#E6C684"/>
<stop offset="0.228" stop-color="#C09947"/>
<stop offset="0.414" stop-color="#E9C577"/>
<stop offset="0.586" stop-color="#9E6F06"/>
<stop offset="1" stop-color="#E5C98D"/>
</linearGradient>
<linearGradient id="paint6_linear_440_1526" x1="20.603" y1="-3.12949" x2="-6.83411" y2="11.7981" gradientUnits="userSpaceOnUse">
<stop stop-color="#E6C684"/>
<stop offset="0.228" stop-color="#C09947"/>
<stop offset="0.414" stop-color="#E9C577"/>
<stop offset="0.586" stop-color="#9E6F06"/>
<stop offset="1" stop-color="#E5C98D"/>
</linearGradient>
<linearGradient id="paint7_linear_440_1526" x1="21.8862" y1="-2.60477" x2="4.25501" y2="-1.40222" gradientUnits="userSpaceOnUse">
<stop stop-color="#E6C684"/>
<stop offset="0.228" stop-color="#C09947"/>
<stop offset="0.414" stop-color="#E9C577"/>
<stop offset="0.586" stop-color="#9E6F06"/>
<stop offset="1" stop-color="#E5C98D"/>
</linearGradient>
<linearGradient id="paint8_linear_440_1526" x1="21.0943" y1="-2.92101" x2="4.08582" y2="33.6752" gradientUnits="userSpaceOnUse">
<stop stop-color="#E6C684"/>
<stop offset="0.228" stop-color="#C09947"/>
<stop offset="0.414" stop-color="#E9C577"/>
<stop offset="0.586" stop-color="#9E6F06"/>
<stop offset="1" stop-color="#E5C98D"/>
</linearGradient>
<linearGradient id="paint9_linear_440_1526" x1="21.7104" y1="-2.67888" x2="-0.423336" y2="30.081" gradientUnits="userSpaceOnUse">
<stop stop-color="#E6C684"/>
<stop offset="0.228" stop-color="#C09947"/>
<stop offset="0.414" stop-color="#E9C577"/>
<stop offset="0.586" stop-color="#9E6F06"/>
<stop offset="1" stop-color="#E5C98D"/>
</linearGradient>
<linearGradient id="paint10_linear_440_1526" x1="26.5669" y1="-0.710489" x2="4.63418" y2="3.79807" gradientUnits="userSpaceOnUse">
<stop stop-color="#E6C684"/>
<stop offset="0.228" stop-color="#C09947"/>
<stop offset="0.414" stop-color="#E9C577"/>
<stop offset="0.586" stop-color="#9E6F06"/>
<stop offset="1" stop-color="#E5C98D"/>
</linearGradient>
<linearGradient id="paint11_linear_440_1526" x1="19.112" y1="-3.73542" x2="2.34207" y2="-3.00068" gradientUnits="userSpaceOnUse">
<stop stop-color="#E6C684"/>
<stop offset="0.228" stop-color="#C09947"/>
<stop offset="0.414" stop-color="#E9C577"/>
<stop offset="0.586" stop-color="#9E6F06"/>
<stop offset="1" stop-color="#E5C98D"/>
</linearGradient>
<linearGradient id="paint12_linear_440_1526" x1="17.3819" y1="-4.42733" x2="-5.24427" y2="27.7992" gradientUnits="userSpaceOnUse">
<stop stop-color="#E6C684"/>
<stop offset="0.228" stop-color="#C09947"/>
<stop offset="0.414" stop-color="#E9C577"/>
<stop offset="0.586" stop-color="#9E6F06"/>
<stop offset="1" stop-color="#E5C98D"/>
</linearGradient>
<linearGradient id="paint13_linear_440_1526" x1="18.1859" y1="-4.10467" x2="-9.45645" y2="17.0609" gradientUnits="userSpaceOnUse">
<stop stop-color="#E6C684"/>
<stop offset="0.228" stop-color="#C09947"/>
<stop offset="0.414" stop-color="#E9C577"/>
<stop offset="0.586" stop-color="#9E6F06"/>
<stop offset="1" stop-color="#E5C98D"/>
</linearGradient>
<linearGradient id="paint14_linear_440_1526" x1="14.1294" y1="-5.74449" x2="-7.73629" y2="27.2842" gradientUnits="userSpaceOnUse">
<stop stop-color="#E6C684"/>
<stop offset="0.228" stop-color="#C09947"/>
<stop offset="0.414" stop-color="#E9C577"/>
<stop offset="0.586" stop-color="#9E6F06"/>
<stop offset="1" stop-color="#E5C98D"/>
</linearGradient>
<linearGradient id="paint15_linear_440_1526" x1="17.2693" y1="-4.4709" x2="-1.97158" y2="-2.24133" gradientUnits="userSpaceOnUse">
<stop stop-color="#E6C684"/>
<stop offset="0.228" stop-color="#C09947"/>
<stop offset="0.414" stop-color="#E9C577"/>
<stop offset="0.586" stop-color="#9E6F06"/>
<stop offset="1" stop-color="#E5C98D"/>
</linearGradient>
<linearGradient id="paint16_linear_440_1526" x1="20.2087" y1="-3.28697" x2="-6.88696" y2="20.7068" gradientUnits="userSpaceOnUse">
<stop stop-color="#E6C684"/>
<stop offset="0.228" stop-color="#C09947"/>
<stop offset="0.414" stop-color="#E9C577"/>
<stop offset="0.586" stop-color="#9E6F06"/>
<stop offset="1" stop-color="#E5C98D"/>
</linearGradient>
<linearGradient id="paint17_linear_440_1526" x1="16.0408" y1="-4.972" x2="-1.39559" y2="31.4053" gradientUnits="userSpaceOnUse">
<stop stop-color="#E6C684"/>
<stop offset="0.228" stop-color="#C09947"/>
<stop offset="0.414" stop-color="#E9C577"/>
<stop offset="0.586" stop-color="#9E6F06"/>
<stop offset="1" stop-color="#E5C98D"/>
</linearGradient>
<linearGradient id="paint18_linear_440_1526" x1="16.3388" y1="-4.85269" x2="-7.29008" y2="26.1656" gradientUnits="userSpaceOnUse">
<stop stop-color="#E6C684"/>
<stop offset="0.228" stop-color="#C09947"/>
<stop offset="0.414" stop-color="#E9C577"/>
<stop offset="0.586" stop-color="#9E6F06"/>
<stop offset="1" stop-color="#E5C98D"/>
</linearGradient>
<linearGradient id="paint19_linear_440_1526" x1="15.563" y1="-5.16679" x2="-5.74332" y2="28.4033" gradientUnits="userSpaceOnUse">
<stop stop-color="#E6C684"/>
<stop offset="0.228" stop-color="#C09947"/>
<stop offset="0.414" stop-color="#E9C577"/>
<stop offset="0.586" stop-color="#9E6F06"/>
<stop offset="1" stop-color="#E5C98D"/>
</linearGradient>
<linearGradient id="paint20_linear_440_1526" x1="15.2494" y1="-5.29507" x2="-2.88723" y2="30.6788" gradientUnits="userSpaceOnUse">
<stop stop-color="#E6C684"/>
<stop offset="0.228" stop-color="#C09947"/>
<stop offset="0.414" stop-color="#E9C577"/>
<stop offset="0.586" stop-color="#9E6F06"/>
<stop offset="1" stop-color="#E5C98D"/>
</linearGradient>
<linearGradient id="paint21_linear_440_1526" x1="14.7333" y1="-5.51075" x2="4.49981" y2="33.2783" gradientUnits="userSpaceOnUse">
<stop stop-color="#E6C684"/>
<stop offset="0.228" stop-color="#C09947"/>
<stop offset="0.414" stop-color="#E9C577"/>
<stop offset="0.586" stop-color="#9E6F06"/>
<stop offset="1" stop-color="#E5C98D"/>
</linearGradient>
<linearGradient id="paint22_linear_440_1526" x1="14.2885" y1="-5.46311" x2="-0.122914" y2="31.8266" gradientUnits="userSpaceOnUse">
<stop stop-color="#E6C684"/>
<stop offset="0.228" stop-color="#C09947"/>
<stop offset="0.414" stop-color="#E9C577"/>
<stop offset="0.586" stop-color="#9E6F06"/>
<stop offset="1" stop-color="#E5C98D"/>
</linearGradient>
<linearGradient id="paint23_linear_440_1526" x1="14.6907" y1="-5.32594" x2="0.287734" y2="32.0051" gradientUnits="userSpaceOnUse">
<stop stop-color="#E6C684"/>
<stop offset="0.228" stop-color="#C09947"/>
<stop offset="0.414" stop-color="#E9C577"/>
<stop offset="0.586" stop-color="#9E6F06"/>
<stop offset="1" stop-color="#E5C98D"/>
</linearGradient>
<linearGradient id="paint24_linear_440_1526" x1="14.7273" y1="-5.29718" x2="0.316837" y2="32.043" gradientUnits="userSpaceOnUse">
<stop stop-color="#E6C684"/>
<stop offset="0.228" stop-color="#C09947"/>
<stop offset="0.414" stop-color="#E9C577"/>
<stop offset="0.586" stop-color="#9E6F06"/>
<stop offset="1" stop-color="#E5C98D"/>
</linearGradient>
<linearGradient id="paint25_linear_440_1526" x1="15.3538" y1="-5.05285" x2="0.945588" y2="32.331" gradientUnits="userSpaceOnUse">
<stop stop-color="#E6C684"/>
<stop offset="0.228" stop-color="#C09947"/>
<stop offset="0.414" stop-color="#E9C577"/>
<stop offset="0.586" stop-color="#9E6F06"/>
<stop offset="1" stop-color="#E5C98D"/>
</linearGradient>
<linearGradient id="paint26_linear_440_1526" x1="16.4653" y1="-5.07412" x2="1.41303" y2="32.9915" gradientUnits="userSpaceOnUse">
<stop stop-color="#E6C684"/>
<stop offset="0.228" stop-color="#C09947"/>
<stop offset="0.414" stop-color="#E9C577"/>
<stop offset="0.586" stop-color="#9E6F06"/>
<stop offset="1" stop-color="#E5C98D"/>
</linearGradient>
<linearGradient id="paint27_linear_440_1526" x1="15.7318" y1="-5.35131" x2="0.684522" y2="32.7122" gradientUnits="userSpaceOnUse">
<stop stop-color="#E6C684"/>
<stop offset="0.228" stop-color="#C09947"/>
<stop offset="0.414" stop-color="#E9C577"/>
<stop offset="0.586" stop-color="#9E6F06"/>
<stop offset="1" stop-color="#E5C98D"/>
</linearGradient>
<linearGradient id="paint28_linear_440_1526" x1="21.2213" y1="-2.73497" x2="6.80975" y2="34.6524" gradientUnits="userSpaceOnUse">
<stop stop-color="#E6C684"/>
<stop offset="0.228" stop-color="#C09947"/>
<stop offset="0.414" stop-color="#E9C577"/>
<stop offset="0.586" stop-color="#9E6F06"/>
<stop offset="1" stop-color="#E5C98D"/>
</linearGradient>
<linearGradient id="paint29_linear_440_1526" x1="21.368" y1="-2.634" x2="6.96026" y2="34.6986" gradientUnits="userSpaceOnUse">
<stop stop-color="#E6C684"/>
<stop offset="0.228" stop-color="#C09947"/>
<stop offset="0.414" stop-color="#E9C577"/>
<stop offset="0.586" stop-color="#9E6F06"/>
<stop offset="1" stop-color="#E5C98D"/>
</linearGradient>
<linearGradient id="paint30_linear_440_1526" x1="19.8674" y1="-3.63512" x2="4.82297" y2="34.4298" gradientUnits="userSpaceOnUse">
<stop stop-color="#E6C684"/>
<stop offset="0.228" stop-color="#C09947"/>
<stop offset="0.414" stop-color="#E9C577"/>
<stop offset="0.586" stop-color="#9E6F06"/>
<stop offset="1" stop-color="#E5C98D"/>
</linearGradient>
<linearGradient id="paint31_linear_440_1526" x1="20.1266" y1="-3.33897" x2="-1.18281" y2="0.478107" gradientUnits="userSpaceOnUse">
<stop stop-color="#E6C684"/>
<stop offset="0.228" stop-color="#C09947"/>
<stop offset="0.414" stop-color="#E9C577"/>
<stop offset="0.586" stop-color="#9E6F06"/>
<stop offset="1" stop-color="#E5C98D"/>
</linearGradient>
<linearGradient id="paint32_linear_440_1526" x1="20.3783" y1="-3.21728" x2="16.2516" y2="35.4283" gradientUnits="userSpaceOnUse">
<stop stop-color="#E6C684"/>
<stop offset="0.228" stop-color="#C09947"/>
<stop offset="0.414" stop-color="#E9C577"/>
<stop offset="0.586" stop-color="#9E6F06"/>
<stop offset="1" stop-color="#E5C98D"/>
</linearGradient>
<clipPath id="clip0_440_1526">
<rect width="24.02" height="35.3223" fill="white" transform="translate(0.490234)"/>
</clipPath>
</defs>
</svg>
